<svg width="100%" height="100%" viewBox="0 0 512 332" fill="none" xmlns="http://www.w3.org/2000/svg">
<path d="M487.136 1.00006C496.136 13.5881 504.134 26.9381 511.016 40.9361M1.01559 291.064C7.89759 305.062 15.8896 318.418 24.8956 331M24.8956 1.00004C15.8956 13.588 7.8976 26.9381 1.0156 40.9361M487.136 331C496.136 318.412 504.134 305.062 511.016 291.064M471.17 331C487.946 309.16 501.464 284.686 511.016 258.316M1.01559 258.316C10.5676 284.686 24.0856 309.16 40.8616 331M40.8616 1.00004C24.0856 22.84 10.5676 47.314 1.0156 73.6841M511.016 73.6841C501.464 47.3141 487.946 22.8401 471.17 1.00006M454.742 331C483.596 296.284 503.528 253.894 511.016 207.334M511.016 124.666C503.528 78.1121 483.596 35.7161 454.742 1.00006M57.2896 1.00004C28.4356 35.716 8.5036 78.106 1.0156 124.666M1.0156 207.334C8.50359 253.888 28.4356 296.284 57.2896 331M437.75 331C477.344 287.416 501.476 229.528 501.476 166C501.476 102.472 477.344 44.5841 437.75 1.00006M74.2816 1.00004C34.6876 44.584 10.5556 102.472 10.5556 166C10.5556 229.528 34.6876 287.416 74.2816 331M92.0356 1.00004C49.6396 43.138 23.3896 101.5 23.3896 166C23.3896 230.5 49.6396 288.862 92.0356 331M420.002 331C462.398 288.862 488.648 230.5 488.648 166C488.648 101.5 462.398 43.1381 420.002 1.00006M401.228 331C446.96 290.722 475.814 231.73 475.814 166C475.814 100.27 446.96 41.2781 401.228 1.00006M110.804 1.00004C65.0716 41.278 36.2176 100.27 36.2176 166C36.2176 231.73 65.0716 290.722 110.804 331M131.072 1.00004C81.2356 38.794 49.0456 98.632 49.0456 166C49.0456 233.368 81.2416 293.206 131.072 331M380.954 331C430.79 293.206 462.98 233.368 462.98 166C462.98 98.6321 430.784 38.7941 380.954 1.00006M153.698 1.00005C98.5816 35.248 61.8796 96.334 61.8796 166C61.8796 235.666 98.5816 296.752 153.698 331M358.328 331C413.444 296.752 450.146 235.666 450.146 166C450.146 96.3341 413.444 35.2481 358.328 1.00005M180.782 1.00005C118.202 29.578 74.7076 92.71 74.7076 166C74.7076 239.29 118.202 302.422 180.782 331M331.238 331C393.818 302.422 437.312 239.29 437.312 166C437.312 92.7101 393.818 29.5781 331.238 1.00005M290.186 331C366.842 315.202 424.484 247.336 424.484 166C424.484 84.6641 366.848 16.7981 290.186 1.00005M221.834 1.00005C145.178 16.798 87.5356 84.664 87.5356 166C87.5356 247.336 145.172 315.202 221.834 331M256.01 10.36C170.054 10.36 100.37 80.044 100.37 166C100.37 251.956 170.054 321.64 256.01 321.64C341.966 321.64 411.65 251.956 411.65 166C411.65 80.0441 341.966 10.36 256.01 10.36V10.36ZM256.01 23.194C177.14 23.194 113.204 87.13 113.204 166C113.204 244.87 177.14 308.806 256.01 308.806C334.88 308.806 398.816 244.87 398.816 166C398.816 87.1301 334.88 23.194 256.01 23.194V23.194ZM385.988 166C385.988 94.2161 327.794 36.0221 256.01 36.022C184.226 36.022 126.032 94.216 126.032 166C126.032 237.784 184.226 295.978 256.01 295.978C327.794 295.978 385.988 237.784 385.988 166V166ZM256.01 283.144C320.708 283.144 373.154 230.698 373.154 166C373.154 101.302 320.708 48.8561 256.01 48.8561C191.312 48.8561 138.866 101.302 138.866 166C138.866 230.698 191.312 283.144 256.01 283.144V283.144ZM256.01 270.31C313.622 270.31 360.32 223.606 360.32 166C360.32 108.394 313.616 61.6901 256.01 61.6901C198.404 61.6901 151.7 108.394 151.7 166C151.7 223.606 198.404 270.31 256.01 270.31V270.31ZM164.528 166C164.528 216.52 205.484 257.482 256.01 257.482C306.536 257.482 347.492 216.526 347.492 166C347.492 115.474 306.536 74.5181 256.01 74.5181C205.484 74.5181 164.528 115.474 164.528 166ZM256.01 87.3521C212.576 87.3521 177.362 122.566 177.362 166C177.362 209.434 212.576 244.648 256.01 244.648C299.444 244.648 334.658 209.434 334.658 166C334.658 122.566 299.444 87.3521 256.01 87.3521ZM256.01 100.186C219.662 100.186 190.196 129.652 190.196 166C190.196 202.348 219.662 231.814 256.01 231.814C292.358 231.814 321.824 202.348 321.824 166C321.824 129.652 292.358 100.186 256.01 100.186V100.186Z" stroke="#FF3C3C" stroke-miterlimit="10"/>
</svg>
