<svg width="100%" height="100%" viewBox="0 0 512 332" fill="none" xmlns="http://www.w3.org/2000/svg">
<path d="M433.497 330.998C457.821 308.799 484.622 295.773 510.998 286.413M435.879 1.00604C462.567 16.7677 487.784 27.3934 510.998 35.5232M509.942 318.075C502.4 321.915 494.9 326.186 487.484 330.998M510.998 301.335C493.502 308.763 476.036 318.171 459.333 330.998M510.998 293.715C488.966 302.271 466.821 313.689 446.139 330.998M510.998 309.279C498.218 315.195 485.498 322.262 473.109 331.004M452.079 1.01205C472.731 12.4358 492.452 20.9976 510.992 27.8914M229.28 1.01206C214.143 25.6595 225.806 78.3982 197.097 107.108C158.782 145.423 77.6518 111.817 77.6518 166.008C77.6518 220.199 158.782 186.588 197.097 224.909C225.806 253.618 214.143 306.363 229.28 331.004M325.218 1.01205C332.112 26.0375 343.254 49.6109 368.117 64.2326C430.612 100.988 484.364 93.2359 510.986 115.327M338.316 1.01205C346.271 21.2676 358.421 39.6392 379.751 52.3289C432.801 83.6301 479.552 85.958 510.986 97.4418M353.723 1.01205C362.219 16.3297 374.015 30.0273 391.384 40.4311C437.577 67.8864 479.078 75.2003 510.986 83.8881M345.69 1.01806C354.011 18.8136 366.155 34.7973 385.571 46.383C435.003 75.6623 479.012 80.8702 510.992 90.4939M331.476 1.01806C338.94 23.7095 350.759 44.601 373.937 58.2867C431.145 92.0659 481.052 90.3259 510.992 105.35M319.422 1.01806C325.758 28.2634 335.85 54.7048 362.303 70.1905C432.933 111.553 492.41 93.0679 510.992 132.331M510.992 259.9C475.382 269.236 436.089 280.869 403.474 313.491C397.816 319.149 392.794 325.004 388.307 331.01M510.992 266.182C476.924 275.638 440.349 288.429 409.384 319.395C405.592 323.186 402.076 327.062 398.806 331.004M510.998 279.405C480.488 289.323 449.001 303.483 421.402 331.004M510.998 272.668C478.616 282.345 444.609 295.983 415.294 325.298C413.41 327.182 411.598 329.084 409.84 331.004M420.526 1.01205C422.398 2.27802 424.318 3.51395 426.304 4.71992C456.699 23.0915 485.21 34.4792 510.998 42.975M2.07159 13.9298C9.61341 10.0899 17.1132 5.81795 24.5291 1.00606M1.01561 22.7315C13.7953 16.8157 26.515 9.74785 38.9047 1.00606M362.501 1.00604C370.919 13.8517 382.019 25.3475 397.222 34.4733C440.427 60.2427 479.576 69.0804 511.004 77.3602M406.612 1.00604C410.884 4.41396 415.498 7.64187 420.496 10.6658C453.261 30.4233 483.818 41.7931 511.01 50.2109M372.077 1.00604C380.099 11.4038 390.16 20.7696 403.048 28.5214C443.457 52.6948 480.362 62.6306 511.016 70.7964M382.553 1.00604C389.806 9.00385 398.44 16.2816 408.868 22.5695C446.625 45.219 481.364 55.9048 511.016 64.1066M394.024 1.00604C400.054 6.66391 406.888 11.9078 414.688 16.6177C449.907 37.8032 482.528 48.9449 511.016 57.2547M296.017 331.004C302.425 301.929 301.237 262.21 326.73 236.716C370.949 192.498 457.989 228.545 457.989 166.008C457.989 103.472 400.144 137.953 333.24 99.9437C300.001 81.0622 301.951 34.3893 294.127 1.01205M301.285 331.004C306.462 302.217 308.46 266.8 332.64 242.62C379.817 195.443 469.803 232.721 469.803 166.008C469.803 99.2957 409.69 134.419 339.06 93.9918C307.11 75.7043 305.478 34.3593 299.173 1.01205M290.215 331.004C299.365 302.871 293.905 257.734 320.826 230.813C362.093 189.546 446.175 224.375 446.175 166.008C446.175 107.648 390.598 141.487 327.42 105.896C292.783 86.384 299.335 32.9913 288.475 1.01205M216.027 1.01206C209.619 30.0874 210.807 69.8064 185.313 95.2998C141.094 139.519 54.0544 103.472 54.0544 166.008C54.0544 228.545 141.088 192.498 185.313 236.717C210.807 262.21 209.625 301.929 216.027 331.004M306.462 331.004C311.244 303.195 315.66 271.402 338.538 248.53C388.667 198.401 481.604 236.903 481.604 166.008C481.604 95.1198 419.224 130.885 344.868 88.04C314.202 70.3704 309.702 33.4893 304.026 1.01205M266.785 331.004C301.135 319.923 276.565 251.446 309.012 218.999C344.376 183.636 422.554 216.017 422.554 166.008C422.554 115.999 371.525 148.543 315.78 117.799C275.353 95.5038 301.345 13.2758 265.957 1.01205M245.246 1.01205C210.897 12.0938 235.466 80.5702 203.019 113.017C167.656 148.381 89.4775 115.999 89.4775 166.008C89.4775 216.017 167.656 183.636 203.019 218.999C235.466 251.446 210.891 319.923 245.246 331.004M221.822 1.01206C212.673 29.1454 218.133 74.2823 191.211 101.204C149.944 142.471 65.8621 107.642 65.8621 166.008C65.8621 224.375 149.944 189.546 191.211 230.813C218.133 257.734 212.673 302.871 221.822 331.004M311.784 331.004C316.632 304.611 322.884 275.992 344.442 254.434C397.522 201.353 493.412 241.072 493.412 166.008C493.412 90.9439 428.764 127.351 350.681 82.0881C321.342 65.0845 314.532 32.0733 308.928 1.01205M282.727 331.004C297.865 306.357 286.201 253.618 314.91 224.909C353.225 186.594 434.355 220.199 434.355 166.008C434.355 111.823 381.053 145.015 321.594 111.847C285.157 91.5259 298.141 28.7074 281.143 1.01205M511.004 235.451C472.035 247.558 419.308 250.426 379.865 289.863C367.223 302.505 358.337 316.521 351.701 331.004M511.004 228.749C472.593 243.49 415.324 242.602 373.961 283.959C359.699 298.221 350.459 314.379 343.872 331.004M511.004 241.69C472.239 252.274 423.424 258.112 385.775 295.767C374.801 306.741 366.533 318.657 360.059 330.998M317.376 330.998C322.542 306.303 330.138 280.533 350.339 260.332C406.372 204.299 505.22 245.242 505.22 166.002C505.22 86.762 438.309 123.805 356.495 76.1303C328.554 59.8466 319.896 30.2854 314.028 1.00605M511.004 247.738C472.965 257.494 427.618 265.726 391.678 301.665C382.433 310.911 375.023 320.787 368.945 330.992M511.004 253.768C474.045 263.164 431.854 273.298 397.582 307.569C390.106 315.045 383.777 322.898 378.359 330.992M511.004 195.131C488.306 239.278 406.648 215.831 356.243 266.236C337.446 285.033 328.92 308.181 323.328 330.998M510.998 221.063C474.374 240.262 411.58 234.521 368.051 278.05C352.223 293.877 342.912 312.261 336.54 330.998M510.998 211.247C478.412 238.354 408.364 225.929 362.147 272.146C344.808 289.485 335.724 310.185 329.706 330.998M1.01561 38.2892C23.0471 29.7334 45.1926 18.3157 65.8741 1.00606M123.701 330.998C119.207 324.992 114.185 319.137 108.533 313.479C75.9179 280.863 36.6248 269.224 1.01562 259.888M102.173 330.992C100.415 329.072 98.6033 327.17 96.7194 325.286C67.4041 295.971 33.3969 282.333 1.01562 272.656M113.207 330.992C109.931 327.05 106.421 323.168 102.629 319.383C71.664 288.417 35.0888 275.626 1.02162 266.17M1.02161 30.6634C18.5172 23.2356 35.9828 13.8278 52.6864 1.00005M210.759 1.00004C205.581 29.7874 203.583 65.2045 179.403 89.384C132.227 136.561 42.2406 99.2837 42.2406 165.996C42.2407 232.709 132.227 195.437 179.403 242.608C203.577 266.782 205.575 302.199 210.759 330.992M160.324 330.992C153.688 316.509 144.808 302.499 132.161 289.851C92.7175 250.408 39.9907 247.546 1.02162 235.439M151.972 330.992C145.498 318.651 137.23 306.729 126.257 295.761C88.6016 258.106 39.7867 252.262 1.02762 241.684M168.16 330.998C161.572 314.373 152.332 298.221 138.07 283.953C96.7134 242.596 39.4387 243.484 1.02762 228.743M1.02761 45.591C27.403 36.2253 54.2044 23.1995 78.5278 1.00606M143.086 330.998C137.008 320.793 129.599 310.917 120.353 301.671C84.4137 265.732 39.0667 257.5 1.02762 247.744M24.5351 331.004C17.1252 326.192 9.61942 321.92 2.0776 318.081M52.6864 331.004C35.9888 318.177 18.5172 308.769 1.02162 301.341M468.933 1.01205C483.476 8.54187 497.522 14.7577 511.004 20.0616M486.452 1.01204C494.012 4.67796 501.428 8.01389 508.694 11.0738M65.8741 330.998C45.1866 313.689 23.0411 302.271 1.01562 293.715M38.9047 330.998C26.521 322.257 13.8013 315.195 1.01562 309.273M78.5158 330.998C54.1924 308.799 27.391 295.773 1.01562 286.413M90.6115 330.998C63.0062 303.477 31.5249 289.317 1.01562 279.4M133.661 330.998C128.237 322.904 121.913 315.051 114.437 307.575C80.1658 273.304 37.9748 263.17 1.01562 253.774M1.01562 110.941C37.6388 91.7419 100.433 97.4838 143.962 53.9548C159.79 38.1272 169.102 19.7436 175.474 1.00605M1.01562 120.757C33.6008 93.6499 103.649 106.076 149.866 59.8586C167.206 42.5191 176.289 21.8196 182.307 1.00605M1.01562 103.262C39.4267 88.52 96.6954 89.408 138.058 48.051C152.32 33.7893 161.56 17.6317 168.148 1.00605M1.01561 96.5598C39.9847 84.4521 92.7115 81.5841 132.155 42.1471C144.796 29.5054 153.682 15.4897 160.318 1.00605M200.247 1.00605C195.399 27.3994 189.147 56.0188 167.59 77.5762C114.509 130.657 18.6192 90.9379 18.6192 166.002C18.6192 241.066 114.515 201.347 167.59 254.428C189.147 275.986 195.399 304.611 200.247 330.998M1.01561 90.32C39.7807 79.7362 88.5956 73.8983 126.245 36.2432C137.218 25.2695 145.486 13.3538 151.96 1.01206M205.563 1.01206C200.781 28.8214 196.365 60.6086 173.488 83.4861C123.359 133.615 30.4209 95.1139 30.4209 166.008C30.4209 236.897 123.359 198.401 173.488 248.53C196.365 271.408 200.781 303.201 205.563 331.004M194.643 1.01206C189.477 25.7075 181.881 51.4769 161.68 71.6784C105.647 127.711 6.79948 86.768 6.79948 166.008C6.79949 245.248 105.647 204.305 161.68 260.338C181.881 280.539 189.477 306.309 194.643 331.004M1.01562 136.867C23.7131 92.7199 105.371 116.167 155.776 65.7626C174.574 46.965 183.099 23.8175 188.691 1.00005M175.474 330.992C169.108 312.249 159.796 293.871 143.968 278.044C100.439 234.515 37.6448 240.256 1.02162 221.057M1.02161 84.2541C39.0607 74.4983 84.4077 66.2665 120.347 30.3274C129.593 21.0816 137.002 11.2058 143.08 1.00005M188.691 330.992C183.099 308.175 174.58 285.033 155.776 266.23C105.371 215.837 23.7131 239.284 1.01562 195.137M1.01561 59.3427C33.3969 49.6649 67.404 36.0272 96.7194 6.71193C98.6033 4.82797 100.415 2.92601 102.173 1.00606M182.307 330.998C176.296 310.185 167.212 289.485 149.866 272.146C103.649 225.929 33.6009 238.354 1.01562 211.247M1.01561 52.6048C31.5249 42.6871 63.0122 28.5214 90.6115 1.00606M1.01561 78.2303C37.9747 68.8345 80.1657 58.7007 114.437 24.4295C121.913 16.9537 128.243 9.09986 133.66 1.00605M1.01561 72.1104C36.6248 62.7746 75.9179 51.1408 108.533 18.5196C114.191 12.8617 119.213 7.00591 123.701 1.00005M1.01561 65.8346C35.0828 56.3788 71.6579 43.587 102.623 12.6218C106.415 8.82986 109.931 4.95397 113.201 1.01206M256.004 82.1421C235.22 82.1421 259.04 139.651 244.346 154.344C229.652 169.038 172.144 145.219 172.144 166.002C172.144 186.786 229.652 162.966 244.346 177.66C259.04 192.354 235.22 249.862 256.004 249.862C276.787 249.862 252.968 192.354 267.661 177.66C282.355 162.966 339.864 186.786 339.864 166.002C339.864 145.219 304.866 172.968 275.041 159.456C256.112 150.877 276.781 82.1421 256.004 82.1421ZM256.004 34.8992C218.517 34.8992 247.232 104.216 220.724 130.723C194.217 157.23 124.901 128.515 124.901 166.002C124.901 203.489 194.217 174.774 220.724 201.281C247.232 227.789 218.517 297.105 256.004 297.105C293.491 297.105 264.775 227.789 291.283 201.281C317.79 174.774 387.107 203.489 387.107 166.002C387.107 128.515 342.912 159.084 298.315 135.649C265.195 118.243 293.491 34.8992 256.004 34.8992ZM256.004 11.2778C210.165 11.2778 241.328 86.5041 208.917 118.915C176.505 151.327 101.279 120.169 101.279 166.002C101.279 211.841 176.505 180.678 208.917 213.089C241.328 245.5 210.171 320.727 256.004 320.727C301.837 320.727 270.679 245.5 303.091 213.089C335.502 180.678 410.728 211.835 410.728 166.002C410.728 120.163 361.973 152.058 309.948 123.745C269.755 101.876 301.837 11.2778 256.004 11.2778ZM256.004 23.0856C214.341 23.0856 244.28 95.3598 214.821 124.813C185.361 154.272 113.093 124.333 113.093 165.996C113.093 207.659 185.367 177.72 214.821 207.179C244.28 236.639 214.341 308.907 256.004 308.907C297.667 308.907 267.727 236.633 297.187 207.179C326.646 177.72 398.914 207.659 398.914 165.996C398.914 124.333 352.439 155.568 304.128 129.691C267.469 110.059 297.661 23.0856 256.004 23.0856ZM256.004 46.713C222.692 46.713 250.184 113.077 226.634 136.633C203.085 160.188 136.714 132.697 136.714 166.002C136.714 199.313 203.079 171.822 226.634 195.371C250.19 218.927 222.698 285.291 256.004 285.291C289.309 285.291 261.823 218.927 285.373 195.371C308.922 171.816 375.293 199.307 375.293 166.002C375.293 132.691 333.384 162.582 292.495 141.601C262.915 126.421 289.309 46.713 256.004 46.713ZM256.004 70.3344C231.044 70.3344 256.088 130.795 238.442 148.441C220.796 166.086 160.336 141.043 160.336 166.002C160.336 190.962 220.796 165.918 238.442 183.564C256.088 201.209 231.044 261.67 256.004 261.67C280.963 261.67 255.92 201.209 273.565 183.564C291.211 165.918 351.671 190.962 351.671 166.002C351.671 141.043 314.358 169.536 280.855 153.504C258.368 142.741 280.957 70.3344 255.998 70.3344L256.004 70.3344ZM255.998 58.5267C226.862 58.5267 253.13 121.939 232.532 142.543C211.935 163.146 148.516 136.879 148.516 166.008C148.516 195.137 211.929 168.876 232.532 189.474C253.136 210.071 226.868 273.49 255.998 273.49C285.127 273.49 258.866 210.077 279.463 189.474C300.061 168.876 363.479 195.137 363.479 166.008C363.479 136.873 323.862 166.08 286.675 147.559C260.642 134.593 285.133 58.5267 255.998 58.5267Z" stroke="#FF534F" stroke-miterlimit="10"/>
</svg>
