<svg width="100%" height="100%" viewBox="0 0 512 332" fill="none" xmlns="http://www.w3.org/2000/svg">
<path d="M1.01561 293.886L14.0412 297.6C19.279 299.094 22.3869 304.475 21.0609 309.755L15.8651 330.496M496.16 1.51004L490.964 22.2512C489.638 27.537 492.746 32.9128 497.984 34.4068L511.01 38.1208M1.02763 38.1207L14.0532 34.4068C19.291 32.9128 22.3989 27.531 21.0729 22.2512L15.8771 1.51002M511.016 293.88L497.99 297.594C492.752 299.088 489.644 304.469 490.97 309.749L496.166 330.49M1.02763 49.1603L27.2887 41.6666C32.2805 40.2446 35.2385 35.1148 33.9785 30.0809L26.6887 1.00598M26.6887 330.994L33.9785 301.919C35.2384 296.886 32.2805 291.756 27.2887 290.334L1.02762 282.84M511.01 282.84L484.749 290.334C479.757 291.756 476.799 296.886 478.059 301.919L485.349 330.994M485.349 1.006L478.059 30.081C476.799 35.1148 479.757 40.2446 484.749 41.6666L511.01 49.1603M37.6323 330.994L46.884 294.084C48.084 289.302 45.2701 284.424 40.5243 283.074L1.02162 271.8M1.02163 60.1998L40.5243 48.9264C45.2701 47.5704 48.078 42.6985 46.884 37.9167L37.6323 1.00598M511.01 271.8L471.507 283.074C466.761 284.43 463.953 289.302 465.147 294.084L474.399 330.994M474.399 1.006L465.147 37.9167C463.947 42.6985 466.761 47.5764 471.507 48.9264L511.01 60.1999M1.02763 71.2395L53.7658 56.186C58.2596 54.9021 60.9296 50.2823 59.7896 45.7464L48.576 0.99998M463.455 0.999998L452.242 45.7465C451.108 50.2823 453.772 54.9021 458.265 56.186L511.004 71.2396M511.004 260.761L458.265 275.814C453.772 277.098 451.102 281.718 452.242 286.254L463.455 331M48.5759 331L59.7896 286.254C60.9235 281.718 58.2596 277.098 53.7658 275.814L1.02762 260.761M452.518 1.006L439.336 53.5881C438.262 57.8719 440.782 62.2399 445.03 63.4518L511.01 82.2791M511.01 249.721L445.03 268.549C440.782 269.76 438.262 274.128 439.336 278.412L452.518 330.994M1.02763 82.2791L67.0074 63.4518C71.2552 62.2399 73.7751 57.8719 72.7012 53.5881L59.5196 1.00599M59.5195 330.994L72.7011 278.412C73.7751 274.128 71.2552 269.76 67.0073 268.548L1.02762 249.721M70.4692 330.994L85.6126 270.576C86.6266 266.539 84.2507 262.429 80.2488 261.289L1.02763 238.682M441.568 1.006L426.425 61.4238C425.411 65.4617 427.787 69.5715 431.788 70.7115L511.01 93.3188M1.02763 93.3188L80.2489 70.7115C84.2507 69.5715 86.6266 65.4557 85.6126 61.4238L70.4692 1.00599M511.01 238.682L431.788 261.289C427.787 262.429 425.411 266.545 426.425 270.577L441.568 330.994M430.624 1.006L413.519 69.2536C412.571 73.0395 414.797 76.8973 418.553 77.9713L511.01 104.358M1.02763 104.358L93.4844 77.9713C97.2403 76.8973 99.4661 73.0394 98.5182 69.2536L81.4128 1.00599M511.01 227.642L418.553 254.029C414.797 255.103 412.571 258.961 413.519 262.747L430.624 330.994M81.4068 330.994L98.5122 262.747C99.4601 258.961 97.2343 255.103 93.4784 254.029L1.02162 227.642M1.02162 115.398L106.72 85.2311C110.23 84.2291 112.306 80.6232 111.424 77.0893L92.3505 1.00599M511.004 216.602L405.305 246.769C401.796 247.771 399.72 251.377 400.601 254.911L419.675 330.994M419.675 1.006L400.602 77.0893C399.714 80.6292 401.796 84.2291 405.305 85.2311L511.004 115.398M92.3504 330.994L111.424 254.911C112.312 251.371 110.23 247.771 106.72 246.769L1.02162 216.602M240.887 1.00599L251.645 11.4217C254.081 13.7796 257.951 13.7796 260.386 11.4217L271.144 1.006M103.294 330.994L124.329 247.075C125.151 243.787 123.219 240.434 119.961 239.504L1.02763 205.563M1.02763 126.438L119.961 92.4968C123.219 91.5668 125.157 88.219 124.329 84.9251L103.294 1.00599M408.737 1.006L387.702 84.9251C386.88 88.213 388.812 91.5668 392.07 92.4968L511.004 126.438M271.138 330.994L260.38 320.579C257.945 318.221 254.075 318.221 251.639 320.579L240.881 330.994M510.998 205.563L392.064 239.504C388.806 240.434 386.868 243.782 387.696 247.075L408.731 330.994M225.624 1.00599L251.975 26.5171C254.225 28.695 257.801 28.695 260.051 26.5171L286.402 1.006M114.238 330.994L137.235 239.24C137.997 236.198 136.209 233.102 133.197 232.244L1.02162 194.523M397.788 1.006L374.79 92.7607C374.029 95.8026 375.816 98.8986 378.828 99.7566L511.004 137.477M286.402 330.994L260.051 305.483C257.801 303.305 254.225 303.305 251.975 305.483L225.624 330.994M1.02162 137.477L133.197 99.7566C136.209 98.8986 137.997 95.8026 137.235 92.7607L114.238 1.00599M511.004 194.523L378.828 232.244C375.816 233.102 374.028 236.198 374.79 239.24L397.788 330.994M386.844 1.006L361.879 100.596C361.177 103.386 362.821 106.23 365.587 107.016L511.004 148.517M301.665 330.994L259.721 290.388C257.651 288.384 254.369 288.384 252.305 290.388L210.36 330.994M1.02162 148.517L146.438 107.016C149.204 106.224 150.848 103.386 150.146 100.596L125.181 1.00599M125.181 330.994L150.146 231.404C150.848 228.614 149.204 225.77 146.438 224.984L1.02162 183.483M210.36 1.00599L252.305 41.6125C254.375 43.6164 257.657 43.6164 259.721 41.6125L301.665 1.006M511.004 183.483L365.587 224.984C362.821 225.776 361.177 228.614 361.879 231.404L386.844 330.994M375.9 1.006L348.973 108.432C348.337 110.976 349.831 113.562 352.351 114.282L511.004 159.562M511.004 172.45L352.351 217.73C349.831 218.45 348.337 221.036 348.973 223.58L375.9 331.006M195.097 1.018L252.635 56.7201C254.519 58.544 257.507 58.544 259.391 56.7201L316.928 1.01801M136.125 331.006L163.052 223.58C163.688 221.036 162.194 218.45 159.674 217.73L1.02162 172.45M1.02162 159.562L159.674 114.282C162.194 113.562 163.688 110.976 163.052 108.432L136.125 1.00599M316.928 330.994L259.39 275.292C257.507 273.468 254.519 273.468 252.635 275.292L195.097 330.994M147.068 1.00599L175.957 116.262C176.533 118.554 175.183 120.888 172.91 121.536L31.8726 161.788C27.6367 162.994 27.6367 169 31.8726 170.212L172.91 210.465C175.183 211.113 176.527 213.446 175.957 215.738L147.068 330.994M179.839 1.00599L252.971 71.8035C254.669 73.4474 257.363 73.4474 259.061 71.8035L332.192 1.006M364.963 330.994L336.074 215.738C335.498 213.446 336.848 211.113 339.122 210.465L480.159 170.212C484.395 169.006 484.395 163 480.159 161.788L339.122 121.536C336.848 120.888 335.504 118.554 336.074 116.262L364.963 1.006M332.192 330.994L259.061 260.197C257.363 258.553 254.669 258.553 252.971 260.197L179.839 330.994M346.291 2.12803L258.731 86.8989C257.219 88.3629 254.813 88.3629 253.301 86.8989L165.74 2.12802C162.92 -0.601883 158.288 2.07402 159.242 5.87789L188.875 124.098C189.385 126.144 188.185 128.219 186.163 128.801L68.9692 162.25C65.1954 163.33 65.1954 168.676 68.9692 169.756L186.163 203.205C188.191 203.781 189.391 205.863 188.875 207.909L159.242 326.128C158.288 329.938 162.92 332.614 165.74 329.878L253.301 245.107C254.813 243.643 257.219 243.643 258.731 245.107L346.291 329.878C349.111 332.608 353.743 329.932 352.789 326.128L323.156 207.909C322.646 205.869 323.846 203.787 325.868 203.205L443.062 169.756C446.836 168.676 446.836 163.33 443.062 162.25L325.868 128.801C323.84 128.226 322.64 126.144 323.156 124.098L352.789 5.8779C353.743 2.06803 349.111 -0.607874 346.291 2.12803ZM328.148 34.4668L258.395 101.994C257.069 103.278 254.957 103.278 253.631 101.994L183.877 34.4668C181.399 32.0669 177.331 34.4188 178.171 37.7607L201.775 131.933C202.225 133.727 201.169 135.551 199.393 136.061L106.036 162.706C102.724 163.654 102.724 168.352 106.036 169.294L199.393 195.939C201.169 196.449 202.225 198.273 201.775 200.067L178.171 294.24C177.331 297.582 181.399 299.933 183.877 297.534L253.631 230.006C254.957 228.722 257.069 228.722 258.395 230.006L328.148 297.534C330.626 299.933 334.694 297.582 333.854 294.24L310.251 200.067C309.801 198.273 310.857 196.449 312.633 195.939L405.989 169.294C409.301 168.346 409.301 163.648 405.989 162.706L312.633 136.061C310.857 135.551 309.801 133.727 310.251 131.933L333.854 37.7607C334.694 34.4188 330.626 32.0669 328.148 34.4668ZM310.005 66.8056L258.065 117.09C256.919 118.2 255.107 118.2 253.961 117.09L202.021 66.8056C199.891 64.7417 196.387 66.7636 197.107 69.6435L214.686 139.769C215.076 141.311 214.164 142.889 212.634 143.321L143.115 163.162C140.259 163.978 140.259 168.022 143.115 168.838L212.634 188.679C214.164 189.117 215.076 190.689 214.686 192.231L197.107 262.357C196.387 265.237 199.891 267.259 202.021 265.195L253.961 214.91C255.107 213.8 256.919 213.8 258.065 214.91L310.005 265.195C312.135 267.259 315.639 265.237 314.919 262.357L297.339 192.231C296.949 190.689 297.861 189.111 299.391 188.679L368.911 168.838C371.767 168.022 371.767 163.978 368.911 163.162L299.391 143.321C297.861 142.883 296.949 141.311 297.339 139.769L314.919 69.6435C315.639 66.7636 312.135 64.7417 310.005 66.8056ZM291.861 99.1446L257.735 132.185C256.775 133.115 255.251 133.115 254.291 132.185L220.164 99.1446C218.376 97.4106 215.436 99.1086 216.042 101.526L227.592 147.605C227.916 148.901 227.154 150.221 225.87 150.587L180.187 163.624C177.793 164.308 177.793 167.698 180.187 168.382L225.87 181.42C227.154 181.786 227.916 183.106 227.592 184.401L216.042 230.48C215.436 232.892 218.376 234.59 220.164 232.862L254.291 199.821C255.251 198.891 256.775 198.891 257.735 199.821L291.861 232.862C293.649 234.596 296.589 232.898 295.983 230.48L284.434 184.401C284.11 183.106 284.872 181.786 286.156 181.42L331.838 168.382C334.232 167.698 334.232 164.308 331.838 163.624L286.156 150.587C284.872 150.221 284.11 148.901 284.434 147.605L295.983 101.526C296.589 99.1146 293.649 97.4166 291.861 99.1446ZM273.718 131.483L257.399 147.281C256.625 148.031 255.395 148.031 254.621 147.281L238.301 131.483C236.855 130.085 234.485 131.453 234.971 133.403L240.491 155.434C240.755 156.478 240.137 157.546 239.099 157.84L217.26 164.074C215.328 164.626 215.328 167.368 217.26 167.914L239.099 174.148C240.137 174.442 240.749 175.51 240.491 176.554L234.971 198.585C234.485 200.535 236.855 201.903 238.301 200.505L254.621 184.707C255.395 183.957 256.625 183.957 257.399 184.707L273.718 200.505C275.164 201.903 277.534 200.535 277.048 198.585L271.528 176.554C271.264 175.51 271.882 174.442 272.92 174.148L294.759 167.914C296.691 167.362 296.691 164.62 294.759 164.074L272.92 157.84C271.882 157.546 271.27 156.478 271.528 155.434L277.048 133.403C277.534 131.453 275.164 130.085 273.718 131.483Z" stroke="#FF4746" stroke-miterlimit="10"/>
</svg>
