<svg width="100%" height="100%" viewBox="0 0 512 332" fill="none" xmlns="http://www.w3.org/2000/svg">
<path d="M1.01562 127.102C3.41562 139.438 4.80762 152.47 4.80762 166.33C4.80762 180.19 3.41562 193.228 1.01562 205.558M511.016 127.102C508.616 139.438 507.224 152.47 507.224 166.33C507.224 180.19 508.616 193.228 511.016 205.558M511.016 104.944C505.214 123.562 501.458 143.83 501.458 166.324C501.458 188.812 505.214 209.074 511.016 227.68M1.01562 227.716C6.81762 209.098 10.5736 188.83 10.5736 166.33C10.5736 143.842 6.81762 123.58 1.01562 104.974M511.016 89.464C502.076 112.162 495.692 137.362 495.692 166.318C495.692 195.256 502.076 220.438 511.016 243.118M1.01562 243.196C9.95562 220.498 16.3456 195.298 16.3396 166.336C16.3396 137.398 9.95561 112.21 1.01561 89.53M511.016 76.96C499.214 102.772 489.92 131.818 489.926 166.306C489.926 200.758 499.22 229.78 511.016 255.562M1.01562 255.688C12.8176 229.876 22.1116 200.824 22.1056 166.336C22.1056 131.878 12.8116 102.862 1.01561 77.08M511.016 66.172C496.688 94.564 484.154 126.79 484.16 166.306C484.166 205.774 496.694 237.952 511.016 266.302M1.01562 266.482C15.3436 238.09 27.8836 205.864 27.8716 166.348C27.8656 126.88 15.3376 94.696 1.01561 66.352M511.016 56.422C494.576 87.088 478.382 122.014 478.394 166.306C478.406 210.532 494.576 245.398 511.016 275.998M1.01562 276.244C17.4556 245.578 33.6496 210.652 33.6376 166.354C33.6256 122.128 17.4556 87.262 1.01561 56.656M511.016 47.2C493.004 80.002 472.61 117.286 472.628 166.294C472.646 215.206 492.998 252.406 511.016 285.124M1.01562 285.454C19.0276 252.652 39.4216 215.362 39.4036 166.354C39.3856 117.436 19.0336 80.236 1.01561 47.518M1.01562 294.616C19.8076 259.63 45.1936 220.246 45.1696 166.36C45.1456 112.606 19.8316 73.33 1.01561 38.464M511.016 38.038C492.224 73.018 466.838 112.408 466.862 166.288C466.886 220.042 492.194 259.312 511.016 294.184M1.01562 304.462C19.2856 266.98 50.9656 225.652 50.9416 166.366C50.9116 107.266 19.3696 66.088 1.01561 28.768M511.016 28.192C492.746 65.674 461.066 107.002 461.096 166.282C461.126 225.382 492.662 266.554 511.016 303.874M1.42362 315.76C16.6996 275.08 56.7376 231.988 56.7016 166.372C56.6656 100.798 16.6036 57.838 1.23761 17.266M510.686 16.684C495.47 57.424 455.294 100.552 455.33 166.282C455.366 231.742 495.29 274.666 510.716 315.178M507.284 8.83C496.964 52.174 449.522 95.986 449.564 166.276C449.606 236.296 496.778 279.88 507.428 322.978M4.87362 323.344C15.4276 280.156 62.5216 236.41 62.4736 166.378C62.4316 96.094 14.9056 52.45 4.4956 9.19001M10.3636 328.276C15.3856 283.108 68.2936 239.392 68.2456 166.378C68.1916 92.938 14.5456 49.336 9.9676 3.97004M501.758 3.75996C497.144 49.138 443.756 92.926 443.81 166.258C443.864 239.374 497.036 282.91 502.022 328.06M494.876 1.23999C495.728 47.98 437.978 91.276 438.038 166.258C438.098 241.102 495.764 284.122 495.236 330.688M17.1736 330.754C16.8616 284.26 74.0716 241.018 74.0176 166.384C73.9576 91.198 15.7576 48.118 16.8316 1.306M24.6196 331C19.9396 283.888 79.8556 241.426 79.7836 166.39C79.7176 90.748 18.6796 48.496 24.3436 0.999994M487.37 0.999974C492.668 48.37 432.206 90.88 432.278 166.258C432.344 241.552 492.824 283.768 487.79 331M479.42 0.999974C489.56 48.994 426.44 90.634 426.518 166.252C426.59 241.81 489.788 283.114 479.888 331M32.5216 331C23.0836 283.282 85.6276 241.672 85.5556 166.396C85.4836 90.496 21.7216 49.162 32.3236 0.999994M470.93 0.999975C486.578 49.708 420.662 90.43 420.746 166.246C420.83 242.032 486.872 282.364 471.44 331M293.384 331C281.45 328.528 268.76 328.12 255.086 331M40.9276 331C26.0656 282.58 91.3997 241.882 91.3156 166.402C91.2316 90.28 24.6016 49.924 40.8316 0.999994M461.84 0.999975C483.752 50.53 414.884 90.262 414.974 166.24C415.064 242.206 484.118 281.5 462.386 331M310.844 331C293.084 323.974 273.674 320.548 251.69 326.032C245.69 327.544 239.972 329.212 234.506 331M216.074 0.999986C228.26 4.89999 241.442 7.39599 255.95 7.37799C270.326 7.35999 283.388 4.87598 295.454 0.999982M49.9396 331C28.9156 281.77 97.1776 242.056 97.0876 166.408C96.9976 90.106 27.3376 50.806 49.9696 0.999993M321.908 331C301.244 320.59 278.45 313.6 251.768 320.272C239.774 323.308 228.932 326.992 219.008 331M59.6296 331C31.6096 280.852 102.956 242.182 102.86 166.414C102.758 89.986 29.9176 51.814 59.7976 0.999993M452.084 0.999976C481.094 51.466 409.124 90.142 409.226 166.24C409.328 242.344 481.544 280.516 452.666 331M201.83 0.999986C217.814 8.00799 235.538 13.174 255.956 13.144C276.212 13.12 293.78 7.97798 309.614 0.999982M191 0.999987C209.684 10.696 230.696 18.952 255.956 18.91C281.018 18.874 301.838 10.672 320.33 0.999981M70.0876 331C34.1416 279.814 108.746 242.254 108.632 166.42C108.518 89.92 32.3416 52.954 70.4176 0.999992M330.746 331C307.808 317.902 282.446 306.838 251.84 314.518C234.404 318.946 219.482 324.814 206.342 331M441.536 0.999976C478.58 52.522 403.346 90.082 403.46 166.234C403.574 242.41 479.102 279.394 442.148 331M81.4097 331C36.5177 278.644 114.518 242.26 114.398 166.426C114.278 89.926 34.6096 54.232 81.9196 0.999992M338.57 331C313.622 316 286.118 300.142 251.906 308.758C229.298 314.53 211.07 322.81 195.518 331M430.118 0.999976C476.234 53.71 397.574 90.082 397.7 166.228C397.82 242.416 476.834 278.128 430.754 331M181.772 0.999987C202.676 12.826 226.298 24.724 255.95 24.682C285.362 24.634 308.744 12.832 329.402 0.999981M93.7097 331C93.4457 330.742 93.1816 330.484 92.9176 330.22C39.5116 277 120.302 241.828 120.17 166.438C120.038 91.042 38.9476 56.608 92.1616 3.20202C92.9176 2.44002 93.6736 1.714 94.4236 1.006M346.214 331.006C319.238 315.214 289.808 293.44 251.972 303.004C224.21 310.126 203.306 321.196 185.876 331.006M417.704 1.00598C418.196 1.47398 418.688 1.954 419.18 2.446C472.586 55.666 391.796 90.838 391.928 166.228C392.06 241.618 473.15 276.058 419.936 329.464C419.408 329.992 418.88 330.502 418.358 331.006M173.168 1.00599C196.148 14.128 221.96 30.514 255.944 30.454C289.616 30.394 315.116 14.188 337.79 1.00599M354.842 331.006C325.436 316.45 294.05 286.588 252.038 297.244C218.804 305.818 195.8 320.302 176.738 331.006M404.258 331.006C407.348 328.894 410.468 326.284 413.624 323.11C464.66 271.882 386.312 238.534 386.168 166.222C386.03 93.91 464.06 59.794 412.826 8.76401C409.784 5.73402 406.808 3.16598 403.88 1.00598M108.44 1.006C105.182 3.328 101.87 6.154 98.4796 9.562C47.4436 60.79 125.792 94.138 125.936 166.45C126.074 238.762 48.0436 272.878 99.2776 323.908C101.942 326.56 104.516 328.918 107.024 331.006M164.084 1.00599C189.386 13.9 217.178 36.292 255.944 36.22C294.26 36.148 321.638 14.116 346.532 1.00599M371.324 331.006C336.692 326.326 302.09 278.638 252.11 291.49C212.168 301.762 187.628 321.052 166.658 331.006M127.562 1.006C120.242 3.274 112.73 7.95398 104.804 15.916C55.9576 64.972 131.558 97.222 131.708 166.45C131.852 235.678 56.5817 268.738 105.638 317.584C111.572 323.494 117.068 327.88 122.282 331M381.806 331C390.146 329.794 398.576 325.516 407.306 316.75C456.152 267.694 380.552 235.444 380.402 166.216C380.258 96.988 455.528 63.928 406.472 15.082C399.29 7.92996 392.462 3.44798 385.832 1.00598M150.686 1.00599C179.966 8.94399 209.984 42.082 255.938 41.986C300.86 41.89 330.212 10.024 358.688 1.00599M252.17 285.73C316.154 269.188 354.32 357.28 400.988 310.402C447.65 263.524 374.792 232.366 374.642 166.216C374.492 100.072 447.002 68.068 400.118 21.406C353.24 -25.256 322.082 47.602 255.932 47.758C189.788 47.908 157.784 -24.602 111.122 22.282C64.4596 69.16 137.318 100.318 137.468 166.468C137.618 232.612 65.1076 264.616 111.992 311.278C158.87 357.94 177.158 305.134 252.17 285.736L252.17 285.73ZM118.346 304.954C163.052 349.432 180.518 298.624 252.236 279.976C313.214 264.118 350.186 348.754 394.67 304.048C439.148 259.342 369.032 229.282 368.876 166.216C368.714 103.15 438.47 72.208 393.764 27.73C349.058 -16.748 318.998 53.368 255.932 53.524C192.866 53.68 161.924 -16.07 117.446 28.636C72.9676 73.342 143.084 103.402 143.24 166.468C143.402 229.534 73.6456 260.476 118.352 304.954L118.346 304.954ZM124.7 298.636C167.228 340.93 183.884 292.126 252.296 274.216C310.262 259.042 346.046 340.222 388.346 297.688C430.64 255.16 363.266 226.186 363.104 166.21C362.936 106.228 429.932 76.342 387.404 34.048C344.876 -8.24597 315.902 59.128 255.926 59.29C195.944 59.458 166.058 -7.538 123.764 34.99C81.4696 77.518 148.844 106.492 149.006 166.468C149.174 226.45 82.1776 256.336 124.706 298.63L124.7 298.636ZM154.766 166.48C154.94 223.378 90.7036 252.208 131.06 292.318C171.416 332.428 187.25 285.628 252.362 268.456C307.316 253.966 341.912 331.69 382.028 291.334C422.138 250.978 357.512 223.102 357.338 166.204C357.164 109.306 421.4 80.476 381.044 40.366C340.688 0.255973 312.812 64.888 255.914 65.056C199.016 65.23 170.186 0.993987 130.076 41.35C89.9656 81.706 154.592 109.582 154.766 166.48V166.48ZM136.394 47.71C98.4676 85.888 160.352 112.672 160.532 166.486C160.712 220.3 99.2356 248.074 137.414 286C175.592 323.926 190.61 279.13 252.428 262.696C304.376 248.89 337.778 323.158 375.71 284.974C413.636 246.796 351.752 220.012 351.572 166.198C351.392 112.384 412.868 84.61 374.69 46.684C336.512 8.75799 309.728 70.642 255.914 70.822C202.1 71.002 174.326 9.52604 136.4 47.704L136.394 47.71ZM255.902 76.594C205.166 76.78 178.454 18.064 142.712 54.07C106.97 90.076 166.112 115.762 166.298 166.498C166.484 217.234 107.768 243.946 143.768 279.688C179.774 315.43 193.97 272.638 252.488 256.948C301.43 243.826 333.644 314.632 369.386 278.632C405.128 242.626 345.986 216.94 345.8 166.204C345.614 115.468 404.33 88.756 368.33 53.014C332.324 17.272 306.638 76.414 255.902 76.6L255.902 76.594ZM361.97 59.326C328.142 25.768 303.548 82.168 255.896 82.36C208.244 82.552 182.588 26.596 149.03 60.424C115.472 94.252 171.872 118.846 172.064 166.498C172.256 214.15 116.294 239.806 150.128 273.364C183.956 306.922 197.336 266.134 252.56 251.182C298.49 238.75 329.516 306.094 363.074 272.266C396.632 238.438 340.232 213.844 340.04 166.192C339.848 118.54 395.81 92.884 361.976 59.326L361.97 59.326ZM355.616 65.644C323.96 34.27 300.458 87.928 255.89 88.126C211.322 88.324 186.722 35.122 155.348 66.778C123.974 98.434 177.632 121.936 177.83 166.504C178.028 211.072 124.826 235.672 156.482 267.046C188.138 298.42 200.696 259.636 252.62 245.422C295.544 233.674 325.376 297.562 356.75 265.906C388.124 234.25 334.466 210.748 334.268 166.18C334.07 121.612 387.272 97.012 355.616 65.638L355.616 65.644ZM328.502 166.186C328.298 124.702 378.74 101.158 349.256 71.968C319.772 42.778 297.368 93.694 255.884 93.898C214.4 94.102 190.856 43.66 161.666 73.144C132.476 102.622 183.392 125.032 183.596 166.516C183.8 208 133.358 231.544 162.842 260.734C192.32 289.924 204.062 253.144 252.692 239.674C292.604 228.616 321.248 289.042 350.438 259.564C379.628 230.086 328.712 207.676 328.508 166.192L328.502 166.186ZM344.114 253.204C371.12 225.898 322.952 204.586 322.736 166.186C322.52 127.786 370.208 105.298 342.902 78.292C315.596 51.286 294.284 99.454 255.878 99.67C217.472 99.88 194.99 52.198 167.984 79.504C140.978 106.81 189.146 128.122 189.362 166.522C189.572 204.928 141.89 227.41 169.196 254.416C196.502 281.422 207.428 246.652 252.752 233.914C289.658 223.546 317.108 280.51 344.114 253.204V253.204ZM252.818 228.154C286.718 218.476 312.974 271.978 337.796 246.85C362.618 221.722 317.192 201.502 316.97 166.18C316.754 130.858 361.676 109.432 336.548 84.61C311.42 59.788 291.2 105.214 255.878 105.436C220.556 105.652 199.13 60.73 174.308 85.864C149.486 110.992 194.912 131.212 195.134 166.534C195.35 201.856 150.428 223.282 175.556 248.104C200.684 272.926 210.794 240.16 252.818 228.16L252.818 228.154ZM181.91 241.78C204.866 264.418 214.154 233.668 252.884 222.4C283.772 213.412 308.84 263.452 331.478 240.496C354.116 217.54 311.432 198.418 311.204 166.18C310.976 133.942 353.144 113.566 330.188 90.934C307.232 68.296 288.11 110.98 255.872 111.208C223.634 111.436 203.264 69.268 180.626 92.224C157.988 115.18 200.672 134.302 200.9 166.54C201.128 198.778 158.96 219.154 181.916 241.786L181.91 241.78ZM188.264 235.462C209.042 255.916 217.52 227.176 252.944 216.64C280.826 208.348 304.7 254.92 325.154 234.136C345.608 213.358 305.666 195.328 305.438 166.168C305.204 137.014 344.612 117.694 323.834 97.246C303.056 76.792 285.02 116.734 255.866 116.968C226.712 117.202 207.398 77.794 186.944 98.572C166.49 119.35 206.432 137.38 206.666 166.54C206.9 195.694 167.492 215.014 188.27 235.462L188.264 235.462ZM212.426 166.546C212.666 192.622 176.018 210.88 194.624 229.144C213.23 247.414 220.886 220.69 253.016 210.88C277.892 203.284 300.572 246.388 318.842 227.782C337.112 209.176 299.912 192.238 299.678 166.168C299.438 140.092 336.086 121.834 317.48 103.57C298.874 85.3 281.936 122.5 255.866 122.74C229.796 122.98 211.532 86.332 193.268 104.938C174.998 123.544 212.198 140.482 212.432 166.552L212.426 166.546ZM199.58 111.286C183.494 127.714 217.946 143.56 218.192 166.552C218.438 189.544 184.55 206.746 200.978 222.826C217.406 238.912 224.252 214.21 253.076 205.12C274.946 198.226 296.432 237.856 312.518 221.422C328.604 204.988 294.152 189.148 293.906 166.156C293.66 143.164 327.548 125.962 311.12 109.882C294.692 93.796 278.846 128.254 255.854 128.494C232.862 128.74 215.66 94.852 199.58 111.28L199.58 111.286ZM255.848 134.266C235.94 134.518 219.794 103.39 205.898 117.64C192.002 131.89 223.706 146.644 223.958 166.552C224.21 186.46 193.076 202.606 207.332 216.502C221.588 230.398 227.618 207.73 253.136 199.36C272.006 193.174 292.292 229.318 306.194 215.062C320.096 200.806 288.386 186.058 288.134 166.15C287.882 146.242 319.016 130.096 304.76 116.2C290.504 102.298 275.756 134.008 255.848 134.26L255.848 134.266ZM255.848 140.032C239.024 140.29 223.934 111.916 212.222 124C200.51 136.084 229.472 149.734 229.73 166.564C229.988 183.394 201.614 198.478 213.698 210.19C225.776 221.902 231.002 201.268 253.214 193.606C269.084 188.128 288.17 220.792 299.888 208.714C311.606 196.636 282.638 182.98 282.38 166.15C282.122 149.326 310.496 134.236 298.412 122.524C286.334 110.812 272.678 139.774 255.848 140.032V140.032ZM255.848 145.798C242.102 146.062 228.074 120.448 218.546 130.354C209.018 140.26 235.238 152.818 235.502 166.564C235.766 180.31 210.152 194.338 220.058 203.866C229.964 213.394 234.386 194.818 253.28 187.84C266.15 183.088 284.042 212.254 293.57 202.348C303.098 192.442 276.878 179.884 276.614 166.138C276.35 152.392 301.964 138.364 292.058 128.836C282.152 119.308 269.588 145.528 255.848 145.792L255.848 145.798ZM255.848 151.564C245.186 151.834 232.214 128.98 224.87 136.714C217.526 144.448 241.004 155.914 241.274 166.57C241.544 177.226 218.69 190.204 226.418 197.548C234.146 204.892 237.782 188.398 253.352 182.086C263.234 178.078 279.914 203.728 287.258 196C294.602 188.272 271.124 176.8 270.854 166.144C270.584 155.482 293.438 142.51 285.71 135.166C277.982 127.822 266.51 151.3 255.848 151.57L255.848 151.564Z" stroke="#FF3C3C" stroke-miterlimit="10"/>
</svg>
