<svg width="100%" height="100%" viewBox="0 0 511 331" fill="none" xmlns="http://www.w3.org/2000/svg">
<path d="M181.136 330.355L175.094 330.355M283.765 1.012L275.005 1.012M136.567 330.355C136.429 330.247 136.292 330.127 136.148 330.026C126.639 323.103 106.483 326.678 86.2076 330.355M509.132 14.4492C499.605 40.6888 479.76 72.4195 485.748 90.8687C488.551 99.5035 498.18 107.18 510 114.605M491.814 330.337C497.395 306.163 453.407 256.061 461.06 232.486C465.329 219.336 488.946 208.935 509.994 197.941M509.994 124.54C492.934 115.258 476.994 105.947 473.401 94.8807C466.437 73.4076 498.084 32.09 502.587 5.04197M297.149 1.012C283.286 19.5869 266.771 53.4075 255.514 53.4075C244.256 53.4075 227.735 19.5869 213.873 1.01199M318.496 1.012C320.999 22.8564 311.754 67.7429 321.484 74.8207C334.107 84.0064 396.275 44.0841 405.461 56.7009C414.556 69.198 357.454 115.953 362.329 130.965C367.029 145.45 440.868 149.623 440.868 165.677C440.868 181.731 367.029 185.905 362.329 200.39C357.454 215.402 414.556 262.157 405.461 274.654C396.275 287.277 334.107 247.349 321.484 256.534C311.76 263.612 320.999 308.499 318.496 330.343M350.544 1.012C352.197 10.8863 354.802 18.8324 359.616 22.3355C377.742 35.5271 444.754 0.449127 457.946 18.575C471.006 36.5212 417.041 89.3597 424.042 110.917C430.796 131.719 505.742 142.629 505.742 165.683C505.742 188.737 430.796 199.648 424.042 220.45C417.041 242.007 471.006 294.852 457.946 312.792C444.754 330.918 377.742 295.84 359.616 309.031C354.802 312.534 352.197 320.481 350.544 330.355M324.257 1.012C324.7 24.6229 320.203 57.8446 329.113 64.3237C342.838 74.3118 405.976 35.3535 415.958 49.0781C425.844 62.665 369.371 110.635 374.67 126.959C379.784 142.707 453.844 148.228 453.844 165.683C453.844 183.139 379.784 188.66 374.67 204.408C369.371 220.732 425.844 268.702 415.958 282.289C405.97 296.013 342.832 257.055 329.113 267.043C320.209 273.522 324.7 306.744 324.257 330.355M275.005 1.012C267.999 8.86832 261.322 14.4851 255.508 14.4851C249.693 14.4851 243.011 8.86832 236.011 1.01199M283.765 1.012C273.61 14.9163 263.586 27.4552 255.508 27.4552C247.43 27.4552 237.406 14.9103 227.25 1.01199M509.132 316.918C499.605 290.678 479.76 258.947 485.748 240.498C488.551 231.863 498.18 224.187 510 216.762M510 297.84C501.096 277.642 492.521 257.552 496.88 244.115C498.766 238.313 503.563 232.911 510 227.732M1.01553 197.929C22.0635 208.923 45.6804 219.324 49.9499 232.474C57.6026 256.049 13.6204 306.151 19.1952 330.325M510 103.629C503.563 98.4496 498.766 93.0544 496.88 87.246C492.521 73.8088 501.096 53.7189 510 33.5211M290.747 1.012C278.352 19.0061 265.268 40.4313 255.514 40.4313C245.759 40.4313 232.669 19.0061 220.274 1.01199M335.921 1.012C336.412 19.8325 337.143 38.078 344.364 43.3296C360.287 54.9165 425.365 17.9043 436.952 33.8265C448.425 49.5931 393.203 100.001 399.353 118.941C405.287 137.216 479.79 145.432 479.79 165.689C479.79 185.947 405.287 194.163 399.353 212.438C393.203 231.378 448.425 281.786 436.952 297.552C425.365 313.475 360.287 276.462 344.364 288.049C337.143 293.307 336.412 311.546 335.921 330.367M476.754 330.367C477.575 329.684 478.311 328.924 478.94 328.056C493.587 307.93 440.874 252.654 448.724 228.48C453.64 213.342 487.108 202.294 510 189.342M329.879 1.012C330.005 23.048 328.622 47.9224 336.736 53.8266C351.556 64.6111 415.664 26.6289 426.455 41.4493C437.137 56.126 381.287 105.312 387.011 122.947C392.532 139.959 466.814 146.827 466.814 165.683C466.814 184.54 392.532 191.408 387.011 208.42C381.287 226.049 437.137 275.241 426.455 289.918C415.67 304.738 351.562 266.756 336.736 277.54C328.622 283.444 329.999 308.319 329.879 330.355M510 179.743C490 195.749 442.03 207.055 436.377 224.462C428.952 247.331 482.293 301.391 468.437 320.421C454.449 339.642 386.46 305.54 367.239 319.529C364.197 321.744 361.939 325.529 360.191 330.355M502.587 326.325C498.084 299.277 466.437 257.959 473.407 236.492C477 225.432 492.94 216.115 510 206.833M227.25 330.355C237.406 316.451 247.43 303.912 255.508 303.912C263.586 303.912 273.61 316.457 283.765 330.355M34.2672 1.01199C33.4468 1.69462 32.7103 2.45511 32.0816 3.32337C17.4348 23.4492 70.1476 78.7249 62.2972 102.899C57.3811 118.037 23.9139 129.084 1.02153 142.037M360.191 1.012C361.939 5.83837 364.197 9.62282 367.239 11.8384C386.46 25.8265 454.449 -8.27546 468.437 10.9462C482.287 29.9822 428.952 84.0364 436.377 106.905C442.03 124.312 489.994 135.617 510 151.624M8.42875 5.04194C12.9318 32.09 44.5786 73.4076 37.6085 94.8747C34.0157 105.935 18.0755 115.252 1.01553 124.534M19.2013 1.03594C13.6204 25.2097 57.6086 75.3118 49.9559 98.8867C45.6864 112.036 22.0695 122.438 1.02153 133.432M220.28 330.355C232.675 312.361 245.759 290.936 255.514 290.936C265.268 290.936 278.358 312.361 290.747 330.355M213.873 330.355C227.735 311.78 244.25 277.959 255.508 277.959C266.765 277.959 283.286 311.774 297.143 330.355M510 142.031C487.102 129.078 453.634 118.031 448.724 102.893C440.874 78.719 493.587 23.4433 478.94 3.32339C478.311 2.45513 477.575 1.69464 476.754 1.01201M1.88977 14.4492C11.4168 40.6888 31.2612 72.4195 25.2731 90.8687C22.4707 99.5035 12.8419 107.18 1.02153 114.605M510 133.432C488.952 122.438 465.335 112.036 461.066 98.8867C453.413 75.3118 497.395 25.2097 491.814 1.03596M1.01553 216.768C12.8359 224.193 22.4647 231.863 25.2671 240.504C31.2552 258.953 11.4168 290.678 1.8838 316.924M1.01553 227.744C7.45268 232.923 12.2491 238.319 14.1353 244.127C18.5006 257.564 9.91976 277.66 1.01553 297.852M1.01553 206.839C18.0755 216.121 34.0157 225.432 37.6085 236.498C44.5786 257.965 12.9318 299.283 8.42874 326.331M1.01554 33.5271C9.91977 53.7248 18.4946 73.8147 14.1353 87.2519C12.2491 93.0544 7.45269 98.4556 1.01553 103.635M186.759 330.361C186.316 306.75 190.813 273.528 181.903 267.049C168.178 257.061 105.04 296.019 95.0579 282.295C85.1716 268.708 141.645 220.738 136.346 204.414C131.232 188.666 57.1715 183.145 57.1715 165.689C57.1715 148.234 131.232 142.713 136.346 126.965C141.645 110.641 85.1716 62.671 95.0579 49.0841C105.046 35.3595 168.184 74.3177 181.903 64.3297C190.807 57.8506 186.316 24.6289 186.759 1.01798M192.519 330.361C190.016 308.517 199.262 263.63 189.531 256.552C176.909 247.366 114.741 287.289 105.555 274.672C96.4591 262.175 153.561 215.42 148.687 200.408C143.986 185.923 70.1476 181.749 70.1476 165.695C70.1476 149.641 143.986 145.468 148.687 130.983C153.561 115.971 96.4591 69.2159 105.555 56.7188C114.741 44.096 176.909 84.0244 189.531 74.8387C199.256 67.7608 190.016 22.8744 192.519 1.02996M181.136 330.373C181.01 308.337 182.394 283.462 174.28 277.558C159.459 266.774 95.3513 304.756 84.5608 289.936C73.8782 275.259 129.729 226.073 124.004 208.438C118.483 191.426 44.2014 184.558 44.2014 165.701C44.2014 146.845 118.483 139.977 124.004 122.965C129.729 105.336 73.8782 56.144 84.5609 41.4673C95.3453 26.6468 159.453 64.6291 174.28 53.8446C182.394 47.9404 181.016 23.066 181.136 1.02996M1.01553 189.354C23.9138 202.306 57.3811 213.354 62.2913 228.492C70.1416 252.666 17.4288 307.942 32.0755 328.067C32.7043 328.936 33.4408 329.696 34.2612 330.379M150.819 330.379C149.07 325.552 146.813 321.768 143.771 319.552C124.549 305.564 56.5607 339.666 42.5726 320.445C28.7222 301.409 82.0578 247.355 74.6326 224.486C68.9799 207.079 21.0156 195.773 1.00954 179.767M342.688 1.012C343.796 15.6528 345.838 28.3594 351.993 32.8325C369.017 45.2218 435.066 9.17372 447.455 26.1978C459.718 43.0541 405.125 94.6771 411.7 114.923C418.041 134.462 492.766 144.025 492.766 165.677C492.766 187.33 418.041 196.899 411.7 216.432C405.125 236.684 459.718 288.307 447.455 305.157C435.065 322.181 369.017 286.133 351.993 298.522C345.844 303.001 343.796 315.702 342.688 330.343M1.01553 151.624C21.0156 135.617 68.9859 124.312 74.6386 106.905C82.0638 84.0363 28.7222 29.9762 42.5786 10.9462C56.5667 -8.27548 124.555 25.8265 143.777 11.8384C146.819 9.62281 149.076 5.83836 150.825 1.01199M236.011 330.355C243.017 322.499 249.693 316.882 255.508 316.882C261.322 316.882 268.005 322.499 275.005 330.355M175.094 330.355C174.603 311.534 173.873 293.289 166.651 288.037C150.729 276.45 85.6507 313.463 74.0638 297.54C62.5907 281.774 117.812 231.366 111.663 212.426C105.729 194.151 31.2253 185.935 31.2253 165.677C31.2253 145.42 105.729 137.204 111.663 118.929C117.812 99.9885 62.5907 49.5811 74.0638 33.8145C85.6507 17.8923 150.729 54.9045 166.651 43.3176C173.873 38.0601 174.603 19.8205 175.094 1.00002M168.328 330.343C167.22 315.702 165.178 302.995 159.022 298.522C141.998 286.133 75.95 322.181 63.5607 305.157C51.2972 288.301 105.89 236.678 99.3154 216.432C92.974 196.893 18.2491 187.33 18.2491 165.677C18.2491 144.025 92.974 134.456 99.3154 114.923C105.89 94.6711 51.2972 43.0481 63.5608 26.1977C75.95 9.1737 141.998 45.2218 159.022 32.8325C165.172 28.3534 167.22 15.6528 168.328 1.01199M160.471 330.355C158.819 320.481 156.214 312.534 151.399 309.031C133.274 295.84 66.2613 330.918 53.0697 312.792C40.0097 294.846 93.974 242.007 86.974 220.45C80.2195 199.648 5.27303 188.737 5.27303 165.683C5.27303 142.629 80.2195 131.719 86.974 110.917C93.9741 89.3597 40.0097 36.5152 53.0697 18.5749C66.2614 0.44911 133.274 35.5271 151.399 22.3354C156.214 18.8324 158.819 10.8863 160.471 1.01199M255.508 105.3C265.963 105.3 287.316 35.6589 296.753 38.7248C306.532 41.8984 282.843 110.887 290.981 116.809C299.203 122.791 357.49 78.9884 363.472 87.21C369.395 95.3478 309.783 137.234 312.957 147.013C316.023 156.45 388.969 155.234 388.969 165.689C388.969 176.145 316.017 174.929 312.957 184.366C309.783 194.145 369.395 236.025 363.472 244.163C357.49 252.384 299.203 208.582 290.981 214.564C282.843 220.486 306.532 289.474 296.753 292.648C287.316 295.714 265.963 226.073 255.508 226.073C245.053 226.073 223.699 295.714 214.262 292.648C204.484 289.474 228.172 220.486 220.035 214.564C211.813 208.582 153.525 252.384 147.543 244.163C141.621 236.025 201.232 194.139 198.058 184.36C194.993 174.923 122.046 176.139 122.046 165.683C122.046 155.228 194.998 156.444 198.058 147.007C201.232 137.228 141.621 95.3478 147.543 87.21C153.525 78.9884 211.813 122.791 220.035 116.809C228.172 110.887 204.484 41.8984 214.262 38.7248C223.699 35.6589 245.053 105.3 255.508 105.3V105.3ZM255.508 66.3776C270.161 66.3776 295.562 -2.5988 308.783 1.69464C322.49 6.14376 302.448 77.0124 313.861 85.3118C325.382 93.6951 386.58 52.8027 394.964 64.3237C403.263 75.7309 345.538 121.264 349.987 134.971C354.281 148.192 427.898 151.019 427.898 165.677C427.898 180.336 354.281 183.157 349.987 196.384C345.538 210.091 403.269 255.624 394.964 267.031C386.58 278.552 325.382 237.66 313.861 246.043C302.454 254.343 322.49 325.211 308.783 329.666C295.562 333.96 270.167 264.983 255.508 264.983C240.849 264.983 215.454 333.96 202.232 329.666C188.525 325.217 208.567 254.349 197.154 246.049C185.633 237.666 124.435 278.558 116.052 267.037C107.753 255.63 165.477 210.097 161.028 196.39C156.735 183.169 83.1177 180.342 83.1177 165.683C83.1177 151.025 156.735 148.204 161.028 134.977C165.477 121.27 107.747 75.7369 116.052 64.3297C124.435 52.8086 185.633 93.7011 197.154 85.3178C208.561 77.0183 188.525 6.14974 202.232 1.69463C215.454 -2.5988 240.849 66.3776 255.508 66.3776V66.3776ZM255.508 131.252C263.166 131.252 281.825 61.168 288.729 63.4135C295.891 65.7369 269.765 133.468 275.723 137.809C281.741 142.192 338.095 96.4496 342.472 102.468C346.808 108.426 285.945 147.875 288.268 155.037C290.514 161.947 363.017 158.037 363.017 165.689C363.017 173.342 290.508 169.432 288.268 176.342C285.945 183.504 346.808 222.947 342.472 228.911C338.089 234.929 281.741 189.187 275.723 193.57C269.765 197.905 295.891 265.636 288.729 267.965C281.819 270.211 263.16 200.127 255.508 200.127C247.855 200.127 229.19 270.211 222.286 267.965C215.124 265.642 241.25 197.911 235.292 193.57C229.274 189.187 172.921 234.929 168.543 228.911C164.208 222.953 225.07 183.504 222.747 176.342C220.502 169.432 147.998 173.342 147.998 165.689C147.998 158.037 220.508 161.947 222.747 155.037C225.07 147.875 164.208 108.432 168.543 102.468C172.927 96.4496 229.274 142.192 235.292 137.809C241.25 133.474 215.124 65.7428 222.286 63.4135C229.196 61.168 247.855 131.252 255.508 131.252V131.252ZM255.508 118.276C264.562 118.276 284.568 48.4134 292.741 51.0661C301.209 53.8146 276.304 122.174 283.352 127.306C290.472 132.486 347.79 87.713 352.975 94.8328C358.107 101.881 297.867 142.546 300.616 151.019C303.268 159.192 375.999 156.63 375.999 165.683C375.999 174.737 303.268 172.174 300.616 180.348C297.867 188.815 358.107 229.48 352.975 236.534C347.796 243.654 290.472 198.881 283.352 204.061C276.304 209.193 301.209 277.552 292.741 280.301C284.568 282.953 264.562 213.091 255.508 213.091C246.454 213.091 226.448 282.953 218.274 280.301C209.807 277.552 234.711 209.193 227.663 204.061C220.544 198.881 163.226 243.654 158.04 236.534C152.908 229.486 213.148 188.821 210.4 180.348C207.747 172.174 135.016 174.737 135.016 165.683C135.016 156.63 207.747 159.192 210.4 151.019C213.148 142.552 152.908 101.887 158.04 94.8328C163.22 87.713 220.544 132.486 227.663 127.306C234.711 122.174 209.807 53.8146 218.274 51.0661C226.448 48.4134 246.454 118.276 255.508 118.276V118.276ZM255.508 92.3298C267.364 92.3298 290.065 22.9103 300.759 26.3834C311.849 29.9822 289.376 99.5993 298.604 106.312C307.927 113.096 367.185 70.2638 373.969 79.5813C380.688 88.8088 321.7 131.911 325.299 142.995C328.772 153.689 401.946 153.821 401.946 165.677C401.946 177.534 328.772 177.666 325.299 188.36C321.7 199.45 380.682 242.546 373.969 251.774C367.185 261.097 307.927 218.259 298.604 225.043C289.376 231.762 311.849 301.373 300.759 304.972C290.065 308.445 267.358 239.025 255.508 239.025C243.657 239.025 220.951 308.445 210.256 304.972C199.166 301.373 221.639 231.756 212.412 225.043C203.088 218.259 143.831 261.091 137.046 251.774C130.328 242.546 189.316 199.444 185.717 188.36C182.244 177.666 109.07 177.534 109.07 165.677C109.07 153.821 182.244 153.689 185.717 142.995C189.316 131.905 130.334 88.8088 137.046 79.5812C143.831 70.2578 203.088 113.096 212.412 106.312C221.639 99.5933 199.166 29.9822 210.256 26.3834C220.951 22.9103 243.657 92.3298 255.508 92.3298V92.3298ZM255.508 79.3537C268.765 79.3537 292.813 10.1558 304.771 14.042C317.167 18.066 295.915 88.3058 306.233 95.8149C316.652 103.402 376.886 61.5333 384.466 71.9585C391.975 82.2759 333.616 126.593 337.646 138.989C341.532 150.947 414.922 152.426 414.922 165.683C414.922 178.941 341.526 180.42 337.646 192.378C333.622 204.773 391.975 249.091 384.472 259.408C376.886 269.828 316.658 227.965 306.239 235.552C295.921 243.061 317.173 313.301 304.777 317.325C292.819 321.211 268.765 252.013 255.514 252.013C242.262 252.013 218.208 321.211 206.25 317.325C193.855 313.301 215.106 243.061 204.789 235.552C194.37 227.965 134.136 269.834 126.555 259.408C119.046 249.091 177.406 204.773 173.376 192.378C169.489 180.42 96.0998 178.941 96.0998 165.683C96.0998 152.426 169.495 150.947 173.376 138.989C177.4 126.593 119.046 82.2759 126.549 71.9584C134.136 61.5392 194.364 103.402 204.783 95.8149C215.1 88.3058 193.849 18.066 206.244 14.042C218.202 10.1558 242.256 79.3537 255.508 79.3537V79.3537ZM255.502 144.246C261.759 144.246 279.071 73.9405 284.717 75.7728C290.568 77.671 263.226 144.779 268.095 148.324C273.017 151.905 328.394 105.192 331.975 110.108C335.52 114.977 274.023 153.21 275.927 159.061C277.759 164.707 350.047 159.45 350.047 165.701C350.047 171.953 277.759 166.701 275.927 172.342C274.029 178.192 335.52 216.42 331.975 221.294C328.394 226.217 273.011 179.504 268.095 183.085C263.226 186.63 290.568 253.732 284.717 255.636C279.071 257.468 261.759 187.163 255.502 187.163C249.244 187.163 231.933 257.468 226.286 255.636C220.436 253.738 247.777 186.63 242.909 183.085C237.987 179.504 182.609 226.217 179.028 221.3C175.483 216.432 236.981 178.198 235.077 172.348C233.244 166.701 160.956 171.959 160.956 165.707C160.956 159.456 233.244 164.707 235.077 159.067C236.975 153.216 175.483 114.989 179.028 110.114C182.609 105.192 237.993 151.905 242.909 148.324C247.777 144.779 220.436 77.677 226.286 75.7728C231.933 73.9405 249.244 144.246 255.502 144.246V144.246Z" stroke="#FF3C3C" strokeWidth="1.19761" stroke-miterlimit="10"/>
</svg>
