<svg width="100%" height="100%" viewBox="0 0 512 332" fill="none" xmlns="http://www.w3.org/2000/svg">
<path d="M1.01562 57.518C38.8023 45.1885 97.7203 43.2565 140.331 33.8789C173.366 26.7871 196.309 14.8596 217.596 1.00605M1.02163 48.3384C40.4462 38.7747 94.3244 36.3268 134.355 27.4771C162.338 21.4533 183.397 12.0937 202.177 1.00605M1.22567 17.4035C38.3644 12.5616 78.2749 9.06977 110.416 1.88202C111.73 1.59403 113.032 1.30003 114.322 1.00604M1.02163 32.2109C40.4042 25.7732 86.5606 22.6473 122.385 14.6795C138.909 11.1097 153.206 6.45385 166.082 1.00604M1.02163 24.7232C39.4923 19.1974 82.4328 15.8615 116.398 8.28379C126.033 6.19586 134.943 3.75395 143.277 1.00604M262.69 1.00605C228.972 21.7233 205.572 43.0166 158.288 53.0722C108.76 63.8238 34.4225 63.6678 14.7192 90.4569C-4.61813 116.748 30.0906 169.216 56.2197 212.475C82.3427 255.889 99.9762 290.088 123.387 326.525C124.359 328.013 125.349 329.506 126.345 330.988M294.201 330.988C302.241 325.685 310.215 320.123 317.984 314.921C346.309 295.746 371.845 281.412 385.44 259.909C399.81 237.62 401.693 208.089 416.531 171.154C431.164 133.823 458.823 89.1249 451.516 56.3961C445.276 24.1832 404.861 3.78394 366.439 1.36603C327.89 -0.7939 291.345 14.9916 263.734 31.383C234.959 47.2644 215.13 64.1178 176.245 72.2655C135.789 80.8692 76.571 81.7512 60.0716 104.184C44.0761 125.934 70.1452 168.394 90.1725 203.715C110.194 239.252 124.299 267.631 143.529 296.928C151.946 309.389 161.846 321.221 172.826 330.988M303.051 1.00004C288.897 6.75384 275.782 13.7196 264.166 20.7814C233.315 38.4207 212.31 57.0021 170.264 65.8637C126.783 75.1814 62.5255 75.7214 44.9581 99.6066C27.8467 122.874 56.7956 168.67 78.8629 206.631C100.918 244.789 116.2 275.112 136.821 306.791C142.419 315.191 148.598 323.393 155.27 330.988M316.544 330.988C318.338 329.77 320.12 328.558 321.896 327.37C352.549 306.587 380.19 291.162 394.806 267.871C410.117 243.859 411.899 211.911 428.255 171.79C444.394 131.261 475.209 82.6032 467.757 47.0424C464.085 27.1111 448.348 11.3557 427.805 1.00005M1.02763 68.3836C34.7464 51.5062 100.384 50.3423 146.331 40.2687C184.159 32.1689 208.134 17.4635 232.277 1.00004M1.02763 84.1271C23.7548 57.662 100.876 57.902 152.312 46.6764C194.833 37.5987 218.982 19.8214 246.959 1.00605M62.5675 330.994C43.7402 299.238 25.2128 267.043 1.02763 229.238M280.354 1.00605C274.864 3.99994 269.602 7.08383 264.598 10.1857C231.678 29.583 209.49 49.8983 164.282 59.468C117.778 69.5056 48.48 69.6916 29.8446 95.0347C11.6173 119.814 43.4461 168.946 67.5473 209.559C91.6364 250.345 108.094 282.606 130.107 316.667C133.299 321.509 136.659 326.309 140.175 330.994M1.02763 40.0227C40.8182 32.301 90.5565 29.463 128.373 21.0813C150.914 16.2155 169.148 9.26775 185.287 1.00604M422.615 330.994C430.036 323.771 436.456 316.115 441.604 307.679C461.631 275.058 462.915 231.02 486.861 174.994C493.634 158.8 502.292 141.623 511.01 124.194M470.025 330.994C489.2 298.884 492.866 257.077 511.01 205.125M483.735 330.994C495.956 306.665 501.554 277.434 511.01 243.134M497.132 330.244C502.706 317.213 506.9 302.933 511.01 287.382M37.4103 330.994C25.9028 311.597 14.1492 291.822 1.02762 270.666M439.714 330.994C443.914 326.123 447.688 321.035 450.964 315.641C471.939 281.298 473.115 234.842 498.578 175.636C502.274 166.852 506.504 157.799 511.004 148.571M455.416 330.994C457.144 328.588 458.787 326.129 460.323 323.603C482.241 287.538 483.315 238.664 510.302 176.272C510.536 175.726 510.77 175.174 511.01 174.622M24.8048 330.988C17.1431 318.131 9.31933 305.075 1.02762 291.546M383.58 330.988C399.942 319.031 413.651 306.755 422.891 291.75C441.034 262.573 442.516 223.37 463.425 173.71C477.267 140.087 499.946 101.79 511.016 66.9257M403.955 330.988C415.427 321.449 425.117 311.363 432.256 299.711C451.342 268.813 452.722 227.192 475.149 174.346C485.019 150.569 499.124 124.578 511.016 98.9166M269.026 330.982C284.116 323.321 299.499 312.221 314.085 302.459C340.082 284.886 363.511 271.644 376.092 251.941C389.514 231.374 391.5 204.261 404.819 170.506C417.953 136.373 442.456 95.6347 435.286 65.7378C429.275 36.4528 392.418 17.8294 357.307 15.4295C322.118 13.2756 288.693 27.3271 263.314 41.9666C236.609 56.0901 217.968 71.2096 182.233 78.6493C144.807 86.539 90.6165 87.763 75.1851 108.75C60.2996 128.988 83.4948 168.112 101.488 200.787C119.475 233.696 132.405 260.131 150.242 287.058C162.614 305.093 178.591 321.293 196.567 330.982M49.986 330.982C34.7705 305.279 19.399 279.09 1.01561 249.877M1.01562 136.733C10.9633 161.722 29.3646 190.059 44.9041 215.384C71.7531 259.285 90.1065 294.186 113.254 330.982M100.438 330.982C78.6409 295.41 60.0236 260.917 33.5945 218.306C22.9569 201.201 11.0473 182.788 1.02763 164.824M87.7606 330.982C67.0193 296.55 48.24 262.543 22.2849 221.228C15.4571 210.381 8.12538 199.023 1.03363 187.569M339.05 330.988C366.619 312.791 390.672 297.51 404.177 275.832C420.431 250.099 422.117 215.732 439.99 172.432C457.63 128.7 491.606 76.0874 484.017 37.6888C481.485 23.3133 473.127 10.9537 461.283 1.00005M75.161 330.988C55.2777 297.618 36.4084 264.181 10.9753 224.15C7.74744 219.074 4.41152 213.897 1.03964 208.647M361.735 330.988C383.616 316.253 402.149 302.195 413.543 283.794C430.738 256.339 432.322 219.554 451.714 173.074C470.853 126.144 507.992 69.5716 500.258 28.3411C498.554 18.2674 494.18 9.11777 487.838 1.00005M293.319 114C305.217 116.22 317.174 122.412 321.59 131.219C327.776 141.293 325.388 154.325 322.76 166.048C320.072 177.538 317.372 187.719 310.557 196.233C305.067 203.379 296.391 208.989 286.696 215.318C276.958 221.636 266.194 228.686 256.145 230.168C233.399 236.654 209.808 233.012 197.233 218.012C189.139 207.741 184.453 194.883 180.697 180.364C176.929 166.222 173.894 150.437 180.979 140.801C188.929 129.983 207.858 126.33 224.112 123.456C237.737 121.002 248.099 117.996 260.308 116.178C270.07 113.772 281.638 111.924 293.313 113.994L293.319 114ZM240.401 308.861C261.13 309.527 284.752 291.9 306.255 277.572C327.59 263.209 346.807 252.151 357.367 236.036C368.905 218.912 371.095 196.641 381.372 169.246C391.506 141.515 409.685 108.696 402.797 84.4631C397.242 61.0279 367.501 45.9565 339.02 43.6106C310.545 41.4806 283.372 52.0463 262.45 63.1939C239.885 73.8015 223.608 85.4591 194.197 91.4709C162.818 97.9266 118.707 99.8465 105.412 117.924C92.7584 135.131 110.188 167.584 124.119 194.967C138.039 222.62 148.616 245.179 163.664 267.343C181.891 292.968 210.336 311.759 240.395 308.867L240.401 308.861ZM218.136 117.06C198.859 120.648 174.895 123.96 165.872 136.223C157.67 147.371 163.586 166.486 169.388 183.28C175.171 200.421 181.039 215.222 190.525 227.876C204.234 244.999 228.792 251.677 253.001 245.905C265.186 244.849 278.518 235.688 290.613 227.768C302.637 219.83 313.425 213.129 319.922 204.189C327.68 193.953 330.278 181.354 334.484 166.684C338.612 151.757 344.155 134.771 337.832 121.866C333.188 110.136 317.672 102.168 302.457 99.9185C287.422 97.8366 272.728 101.43 260.74 105.582C246.461 109.152 234.917 113.892 218.136 117.06V117.06ZM259.889 126.786C249.749 126.84 240.569 128.118 230.106 129.858C216.876 132.017 202.987 136.013 196.105 145.379C190.135 153.497 190.291 165.946 192.025 177.442C193.741 189.333 197.257 200.247 203.953 208.143C215.4 221.018 238.019 221.636 259.301 214.425C267.214 212.511 275.404 207.579 282.79 202.863C290.157 198.135 296.727 193.617 301.203 188.265C307.077 181.474 309.873 173.71 311.043 165.4C312.165 156.875 311.397 147.803 305.349 140.561C301.161 134.681 292.755 130.266 284.176 128.07C275.86 126.012 267.406 126.12 259.883 126.78L259.889 126.786ZM146.756 189.117C156.608 211.515 164.828 230.192 177.097 247.603C193.069 268.975 219.57 281.712 246.701 277.38C263.158 277.182 281.638 263.791 298.431 252.667C315.111 241.52 330.11 232.64 338.642 220.106C348.289 206.427 350.683 188.991 357.925 167.956C365.053 146.627 376.92 121.722 370.315 103.152C365.215 85.5671 342.584 74.0475 320.738 71.7555C298.983 69.6496 278.05 76.7294 261.592 84.3791C243.173 91.4649 229.26 99.6666 206.16 104.256C180.835 109.278 146.792 111.894 135.639 127.068C125.211 141.245 136.887 167.032 146.75 189.117L146.756 189.117ZM170.39 257.467C187.489 280.962 214.962 296.73 243.557 293.118C262.15 293.352 283.204 277.842 302.349 265.117C321.356 252.361 338.468 242.39 348.007 228.068C358.597 212.667 360.889 192.813 369.655 168.598C378.288 144.071 393.312 115.206 386.562 93.8048C381.234 73.2975 355.045 60.002 329.888 57.6801C304.773 55.5621 280.72 64.3818 262.03 73.7835C241.535 82.6272 226.446 92.5568 200.191 97.8606C171.836 103.602 132.759 105.87 120.537 122.49C108.994 138.179 123.549 167.302 135.447 192.033C147.332 217.058 156.728 237.68 170.39 257.467ZM150.764 131.645C141.453 144.311 150.248 166.762 158.078 186.195C165.896 205.965 172.94 222.704 183.817 237.734C198.655 256.981 224.19 266.689 249.857 261.637C264.178 261.013 280.084 249.733 294.525 240.212C308.877 230.666 321.77 222.878 329.288 212.145C337.994 200.187 340.484 185.17 346.213 167.32C351.841 149.195 360.547 128.244 354.079 112.512C349.207 97.8546 330.134 88.111 311.607 85.8431C293.211 83.7491 275.398 89.0889 261.172 94.9867C244.823 100.315 232.091 106.782 212.154 110.664C189.853 114.972 160.85 117.93 150.758 131.651L150.764 131.645ZM211.224 149.957C201.283 163.474 200.293 187.491 210.672 198.279C220.992 209.031 242.639 206.619 262.456 198.687C282.256 190.659 300.165 177.082 299.331 164.764C298.461 152.507 278.77 141.365 259.462 137.381C240.137 133.301 221.202 136.373 211.218 149.951L211.224 149.957ZM237.251 324.587C260.117 325.679 286.312 305.939 310.161 290.01C333.83 274.044 355.147 261.889 366.721 243.979C379.2 225.134 381.288 200.445 393.09 169.864C404.723 138.935 426.065 102.156 419.033 75.0854C413.249 48.7284 379.95 31.881 348.157 29.505C316.329 27.3631 286.024 39.6687 262.876 52.5622C238.241 64.9278 220.782 78.3193 188.209 85.0451C153.806 92.2148 104.656 93.7928 90.2925 113.322C76.523 132.041 96.8383 167.836 112.798 197.859C128.751 228.14 140.505 252.637 156.95 277.182C176.311 304.931 205.722 326.753 237.245 324.581L237.251 324.587Z" stroke="#FF756C" stroke-miterlimit="10"/>
</svg>
